
<svg xmlns="http://www.w3.org/2000/svg" xmlns:xlink="http://www.w3.org/1999/xlink" contentStyleType="text/css" data-diagram-type="MINDMAP" height="543px" preserveAspectRatio="none" style="width:732px;height:543px;background:#FFFFFF;" version="1.1" viewBox="0 0 732 543" width="732px" zoomAndPan="magnify"><defs/><g><rect fill="#DDDDDD" height="26.2969" id="_legend" rx="7.5" ry="7.5" style="stroke:#000000;stroke-width:1;" width="257.6455" x="235.6821" y="22"/><text fill="#000000" font-family="sans-serif" font-size="14" lengthAdjust="spacing" textLength="247.6455" x="240.6821" y="39.9951">Get logged in user's ip information.</text><rect fill="#000000" height="36.2969" rx="12.5" ry="12.5" style="stroke:#181818;stroke-width:1.5;" width="263.9883" x="233.0107" y="165.8906"/><text fill="#FFFFFF" font-family="sans-serif" font-size="14" font-weight="bold" lengthAdjust="spacing" textLength="239.5381" x="243.0107" y="188.8857">/proof/v1/&lt;proof-type&gt;/ip-info</text><text fill="#FFFFFF" font-family="sans-serif" font-size="14" lengthAdjust="spacing" textLength="4.4502" x="482.5488" y="188.8857">&#160;</text><text fill="#000000" font-family="sans-serif" font-size="14" lengthAdjust="spacing" textLength="67.8672" x="332.5713" y="241.1826">Response</text><rect fill="#90EE90" height="36.2969" rx="12.5" ry="12.5" style="stroke:#181818;stroke-width:1.5;" width="75.8223" x="118.5195" y="270.4844"/><text fill="#000000" font-family="sans-serif" font-size="14" lengthAdjust="spacing" textLength="51.3721" x="128.5195" y="293.4795">200 OK</text><rect fill="#F1F1F1" height="199.2656" rx="12.5" ry="12.5" style="stroke:#181818;stroke-width:1.5;" width="272.8613" x="20" y="331.7813"/><text fill="#000000" font-family="monospace" font-size="14" lengthAdjust="spacing" textLength="8.4287" x="30" y="354.7764">{</text><text fill="#000000" font-family="monospace" font-size="14" lengthAdjust="spacing" textLength="84.2871" x="46.8574" y="371.0732">result&#160;:&#160;{</text><text fill="#000000" font-family="monospace" font-size="14" lengthAdjust="spacing" textLength="219.1465" x="63.7148" y="387.3701">IPv4&#160;&#160;&#160;&#160;&#160;&#160;:&#160;string&#160;|&#160;null,</text><text fill="#000000" font-family="monospace" font-size="14" lengthAdjust="spacing" textLength="219.1465" x="63.7148" y="403.667">IPv6&#160;&#160;&#160;&#160;&#160;&#160;:&#160;string&#160;|&#160;null,</text><text fill="#000000" font-family="monospace" font-size="14" lengthAdjust="spacing" textLength="33.7148" x="30" y="419.9639">&#160;&#160;&#160;&#160;</text><text fill="#000000" font-family="monospace" font-size="14" lengthAdjust="spacing" textLength="160.1455" x="63.7148" y="436.2607">city&#160;&#160;&#160;&#160;&#160;&#160;:&#160;string,</text><text fill="#000000" font-family="monospace" font-size="14" lengthAdjust="spacing" textLength="160.1455" x="63.7148" y="452.5576">region&#160;&#160;&#160;&#160;:&#160;string,</text><text fill="#000000" font-family="monospace" font-size="14" lengthAdjust="spacing" textLength="151.7168" x="63.7148" y="468.8545">country&#160;&#160;&#160;:&#160;string</text><text fill="#000000" font-family="monospace" font-size="14" lengthAdjust="spacing" textLength="33.7148" x="30" y="485.1514">&#160;&#160;&#160;&#160;</text><text fill="#000000" font-family="monospace" font-size="14" lengthAdjust="spacing" textLength="8.4287" x="46.8574" y="501.4482">}</text><text fill="#000000" font-family="monospace" font-size="14" lengthAdjust="spacing" textLength="8.4287" x="30" y="517.7451">}</text><path d="M156.4307,306.7813 L156.4307,309.7813 C156.4307,316.7813 156.4307,321.7813 156.4307,328.7813 L156.4307,331.7813 " fill="transparent" style="stroke:#181818;stroke-width:1;"/><path d="M365.0049,245.4844 L365.0049,248.4844 C365.0049,255.4844 156.4307,260.4844 156.4307,267.4844 L156.4307,270.4844 " fill="transparent" style="stroke:#181818;stroke-width:1;"/><rect fill="#FFBBCC" height="36.2969" rx="12.5" ry="12.5" style="stroke:#181818;stroke-width:1.5;" width="144.6396" x="334.8286" y="270.4844"/><text fill="#000000" font-family="sans-serif" font-size="14" lengthAdjust="spacing" textLength="120.1895" x="344.8286" y="293.4795">400 Bad Request</text><rect fill="#F1F1F1" height="101.4844" rx="12.5" ry="12.5" style="stroke:#181818;stroke-width:1.5;" width="188.5742" x="312.8613" y="331.7813"/><text fill="#000000" font-family="monospace" font-size="14" lengthAdjust="spacing" textLength="8.4287" x="322.8613" y="354.7764">{</text><text fill="#000000" font-family="monospace" font-size="14" lengthAdjust="spacing" textLength="75.8584" x="339.7188" y="371.0732">error&#160;:&#160;{</text><text fill="#000000" font-family="monospace" font-size="14" lengthAdjust="spacing" textLength="134.8594" x="356.5762" y="387.3701">message&#160;:&#160;string</text><text fill="#000000" font-family="monospace" font-size="14" lengthAdjust="spacing" textLength="8.4287" x="339.7188" y="403.667">}</text><text fill="#000000" font-family="monospace" font-size="14" lengthAdjust="spacing" textLength="8.4287" x="322.8613" y="419.9639">}</text><path d="M407.1484,306.7813 L407.1484,309.7813 C407.1484,316.7813 407.1484,321.7813 407.1484,328.7813 L407.1484,331.7813 " fill="transparent" style="stroke:#181818;stroke-width:1;"/><path d="M365.0049,245.4844 L365.0049,248.4844 C365.0049,255.4844 407.1484,260.4844 407.1484,267.4844 L407.1484,270.4844 " fill="transparent" style="stroke:#181818;stroke-width:1;"/><rect fill="#FFA500" height="36.2969" rx="12.5" ry="12.5" style="stroke:#181818;stroke-width:1.5;" width="149.6162" x="540.9146" y="270.4844"/><text fill="#000000" font-family="sans-serif" font-size="14" lengthAdjust="spacing" textLength="125.166" x="550.9146" y="293.4795">401 Unauthorized</text><rect fill="#F1F1F1" height="101.4844" rx="12.5" ry="12.5" style="stroke:#181818;stroke-width:1.5;" width="188.5742" x="521.4355" y="331.7813"/><text fill="#000000" font-family="monospace" font-size="14" lengthAdjust="spacing" textLength="8.4287" x="531.4355" y="354.7764">{</text><text fill="#000000" font-family="monospace" font-size="14" lengthAdjust="spacing" textLength="75.8584" x="548.293" y="371.0732">error&#160;:&#160;{</text><text fill="#000000" font-family="monospace" font-size="14" lengthAdjust="spacing" textLength="134.8594" x="565.1504" y="387.3701">message&#160;:&#160;string</text><text fill="#000000" font-family="monospace" font-size="14" lengthAdjust="spacing" textLength="8.4287" x="548.293" y="403.667">}</text><text fill="#000000" font-family="monospace" font-size="14" lengthAdjust="spacing" textLength="8.4287" x="531.4355" y="419.9639">}</text><path d="M615.7227,306.7813 L615.7227,309.7813 C615.7227,316.7813 615.7227,321.7813 615.7227,328.7813 L615.7227,331.7813 " fill="transparent" style="stroke:#181818;stroke-width:1;"/><path d="M365.0049,245.4844 L365.0049,248.4844 C365.0049,255.4844 615.7227,260.4844 615.7227,267.4844 L615.7227,270.4844 " fill="transparent" style="stroke:#181818;stroke-width:1;"/><path d="M365.0049,202.1875 L365.0049,205.1875 C365.0049,212.1875 365.0049,217.1875 365.0049,224.1875 L365.0049,227.1875 " fill="transparent" style="stroke:#181818;stroke-width:1;"/><text fill="#000000" font-family="sans-serif" font-size="14" lengthAdjust="spacing" textLength="57.4971" x="334.7563" y="136.5889">Request</text><rect fill="#F1F1F1" height="36.2969" rx="12.5" ry="12.5" style="stroke:#181818;stroke-width:1.5;" width="36.8574" x="346.5762" y="61.2969"/><text fill="#000000" font-family="monospace" font-size="14" lengthAdjust="spacing" textLength="16.8574" x="356.5762" y="84.292">{}</text><path d="M365.0049,122.5938 L365.0049,119.5938 C365.0049,112.5938 365.0049,107.5938 365.0049,100.5938 L365.0049,97.5938 " fill="transparent" style="stroke:#181818;stroke-width:1;"/><path d="M365.0049,165.8906 L365.0049,162.8906 C365.0049,155.8906 365.0049,150.8906 365.0049,143.8906 L365.0049,140.8906 " fill="transparent" style="stroke:#181818;stroke-width:1;"/><!--SRC=[fLFHRjem57ttLrnf3skZ0Q6bRCeYL06bAWKLjT3NoIINO2snCzjXObt_VTSEqPXMzh8yHBRFyR7FkTVNnd9j2o7JWfVCgXAiWhMoLXMG2es95KeobcE6CYMiP43VBLh8LPPX2a92PL2_Do1AccoKBhZRqsPkGxsFiTZOVOu3nWudZGNFD2_WXUJQcKQKVWWmvCdNJAjAfYELAmsvoBRM4mX-TMoj39uWlvjCXiFHg64gpMLsYbk31wfZhtDYd21xp2CJ9MszzdqhRBt_bSMTnXyB80WwfLPgqzbrEx4VjUo-n457b2qNK11077l5mO22tLWm8aKM15_W4RzLQ2oDWoXEL4gABqxT3pypfbqQntHJAcdS982BC8I7UvBsQP5qSAn25zLegjn2TF1ujzZrm7yH6Ak5pE0do2hFFpHm_n-m_oN2xl_arA36Z3hWx_M44hLwVxJUQDKX7cmwDproC-HfamZPSdL_mnLgJSLeJ1Le3AUQ7-c_8Ts5bUILtIejVb0Bnt7T3F-jpgwfsPktn1OvbtOrdy4EjN5vTDiNuSLLEpnRLWXJBY7y2DqmkhoABlimVrg2Wy_PsUrY1aPLEa5wWkwaTULUr3cRyXs7HyfG51Z1GuboEhvl5k16xeHMia1fsVHv_flGxxM6mi8JQhe9FC_P63VSjSADf8kJZmXMoqdh4vjH2XKPZ82UswWkLkIB_Wi0]--></g></svg>
