
<svg xmlns="http://www.w3.org/2000/svg" xmlns:xlink="http://www.w3.org/1999/xlink" contentStyleType="text/css" data-diagram-type="MINDMAP" height="559px" preserveAspectRatio="none" style="width:630px;height:559px;background:#FFFFFF;" version="1.1" viewBox="0 0 630 559" width="630px" zoomAndPan="magnify"><defs/><g><rect fill="#DDDDDD" height="107.7813" id="_legend" rx="7.5" ry="7.5" style="stroke:#000000;stroke-width:1;" width="548.2344" x="39.8154" y="22"/><text fill="#000000" font-family="sans-serif" font-size="14" lengthAdjust="spacing" textLength="4.4502" x="44.8154" y="39.9951">&#160;</text><text fill="#000000" font-family="sans-serif" font-size="14" lengthAdjust="spacing" textLength="172.3682" x="44.8154" y="56.292">This API logs in the user.</text><text fill="#000000" font-family="sans-serif" font-size="14" lengthAdjust="spacing" textLength="4.4502" x="44.8154" y="72.5889">&#160;</text><text fill="#000000" font-family="sans-serif" font-size="14" lengthAdjust="spacing" textLength="538.2344" x="44.8154" y="88.8857">The user should sign the 'message' that was received during the '/pre-login';</text><text fill="#000000" font-family="sans-serif" font-size="14" lengthAdjust="spacing" textLength="4.4502" x="44.8154" y="105.1826">&#160;</text><text fill="#000000" font-family="sans-serif" font-size="14" lengthAdjust="spacing" textLength="390.1543" x="44.8154" y="121.4795">using the privateKey and send it in the 'signature' field.</text><rect fill="#000000" height="36.2969" rx="12.5" ry="12.5" style="stroke:#181818;stroke-width:1.5;" width="252.0869" x="188.3892" y="279.9688"/><text fill="#FFFFFF" font-family="sans-serif" font-size="14" font-weight="bold" lengthAdjust="spacing" textLength="227.6367" x="198.3892" y="302.9639">/proof/v1/&lt;proof-type&gt;/login</text><text fill="#FFFFFF" font-family="sans-serif" font-size="14" lengthAdjust="spacing" textLength="4.4502" x="426.0259" y="302.9639">&#160;</text><text fill="#000000" font-family="sans-serif" font-size="14" lengthAdjust="spacing" textLength="67.8672" x="281.999" y="355.2607">Response</text><rect fill="#90EE90" height="36.2969" rx="12.5" ry="12.5" style="stroke:#181818;stroke-width:1.5;" width="75.8223" x="67.9473" y="384.5625"/><text fill="#000000" font-family="sans-serif" font-size="14" lengthAdjust="spacing" textLength="51.3721" x="77.9473" y="407.5576">200 OK</text><rect fill="#F1F1F1" height="101.4844" rx="12.5" ry="12.5" style="stroke:#181818;stroke-width:1.5;" width="171.7168" x="20" y="445.8594"/><text fill="#000000" font-family="monospace" font-size="14" lengthAdjust="spacing" textLength="8.4287" x="30" y="468.8545">{</text><text fill="#000000" font-family="monospace" font-size="14" lengthAdjust="spacing" textLength="84.2871" x="46.8574" y="485.1514">result&#160;:&#160;{</text><text fill="#000000" font-family="monospace" font-size="14" lengthAdjust="spacing" textLength="118.002" x="63.7148" y="501.4482">success&#160;:&#160;true</text><text fill="#000000" font-family="monospace" font-size="14" lengthAdjust="spacing" textLength="8.4287" x="46.8574" y="517.7451">}</text><text fill="#000000" font-family="monospace" font-size="14" lengthAdjust="spacing" textLength="8.4287" x="30" y="534.042">}</text><path d="M105.8584,420.8594 L105.8584,423.8594 C105.8584,430.8594 105.8584,435.8594 105.8584,442.8594 L105.8584,445.8594 " fill="transparent" style="stroke:#181818;stroke-width:1;"/><path d="M314.4326,359.5625 L314.4326,362.5625 C314.4326,369.5625 105.8584,374.5625 105.8584,381.5625 L105.8584,384.5625 " fill="transparent" style="stroke:#181818;stroke-width:1;"/><rect fill="#FFBBCC" height="36.2969" rx="12.5" ry="12.5" style="stroke:#181818;stroke-width:1.5;" width="144.6396" x="233.6841" y="384.5625"/><text fill="#000000" font-family="sans-serif" font-size="14" lengthAdjust="spacing" textLength="120.1895" x="243.6841" y="407.5576">400 Bad Request</text><rect fill="#F1F1F1" height="101.4844" rx="12.5" ry="12.5" style="stroke:#181818;stroke-width:1.5;" width="188.5742" x="211.7168" y="445.8594"/><text fill="#000000" font-family="monospace" font-size="14" lengthAdjust="spacing" textLength="8.4287" x="221.7168" y="468.8545">{</text><text fill="#000000" font-family="monospace" font-size="14" lengthAdjust="spacing" textLength="75.8584" x="238.5742" y="485.1514">error&#160;:&#160;{</text><text fill="#000000" font-family="monospace" font-size="14" lengthAdjust="spacing" textLength="134.8594" x="255.4316" y="501.4482">message&#160;:&#160;string</text><text fill="#000000" font-family="monospace" font-size="14" lengthAdjust="spacing" textLength="8.4287" x="238.5742" y="517.7451">}</text><text fill="#000000" font-family="monospace" font-size="14" lengthAdjust="spacing" textLength="8.4287" x="221.7168" y="534.042">}</text><path d="M306.0039,420.8594 L306.0039,423.8594 C306.0039,430.8594 306.0039,435.8594 306.0039,442.8594 L306.0039,445.8594 " fill="transparent" style="stroke:#181818;stroke-width:1;"/><path d="M314.4326,359.5625 L314.4326,362.5625 C314.4326,369.5625 306.0039,374.5625 306.0039,381.5625 L306.0039,384.5625 " fill="transparent" style="stroke:#181818;stroke-width:1;"/><rect fill="#FFA500" height="36.2969" rx="12.5" ry="12.5" style="stroke:#181818;stroke-width:1.5;" width="149.6162" x="439.77" y="384.5625"/><text fill="#000000" font-family="sans-serif" font-size="14" lengthAdjust="spacing" textLength="125.166" x="449.77" y="407.5576">401 Unauthorized</text><rect fill="#F1F1F1" height="101.4844" rx="12.5" ry="12.5" style="stroke:#181818;stroke-width:1.5;" width="188.5742" x="420.291" y="445.8594"/><text fill="#000000" font-family="monospace" font-size="14" lengthAdjust="spacing" textLength="8.4287" x="430.291" y="468.8545">{</text><text fill="#000000" font-family="monospace" font-size="14" lengthAdjust="spacing" textLength="75.8584" x="447.1484" y="485.1514">error&#160;:&#160;{</text><text fill="#000000" font-family="monospace" font-size="14" lengthAdjust="spacing" textLength="134.8594" x="464.0059" y="501.4482">message&#160;:&#160;string</text><text fill="#000000" font-family="monospace" font-size="14" lengthAdjust="spacing" textLength="8.4287" x="447.1484" y="517.7451">}</text><text fill="#000000" font-family="monospace" font-size="14" lengthAdjust="spacing" textLength="8.4287" x="430.291" y="534.042">}</text><path d="M514.5781,420.8594 L514.5781,423.8594 C514.5781,430.8594 514.5781,435.8594 514.5781,442.8594 L514.5781,445.8594 " fill="transparent" style="stroke:#181818;stroke-width:1;"/><path d="M314.4326,359.5625 L314.4326,362.5625 C314.4326,369.5625 514.5781,374.5625 514.5781,381.5625 L514.5781,384.5625 " fill="transparent" style="stroke:#181818;stroke-width:1;"/><path d="M314.4326,316.2656 L314.4326,319.2656 C314.4326,326.2656 314.4326,331.2656 314.4326,338.2656 L314.4326,341.2656 " fill="transparent" style="stroke:#181818;stroke-width:1;"/><text fill="#000000" font-family="sans-serif" font-size="14" lengthAdjust="spacing" textLength="57.4971" x="284.1841" y="250.667">Request</text><rect fill="#F1F1F1" height="68.8906" rx="12.5" ry="12.5" style="stroke:#181818;stroke-width:1.5;" width="188.5742" x="220.1455" y="142.7813"/><text fill="#000000" font-family="monospace" font-size="14" lengthAdjust="spacing" textLength="8.4287" x="230.1455" y="165.7764">{</text><text fill="#000000" font-family="monospace" font-size="14" lengthAdjust="spacing" textLength="151.7168" x="247.0029" y="182.0732">signature&#160;:&#160;string</text><text fill="#000000" font-family="monospace" font-size="14" lengthAdjust="spacing" textLength="8.4287" x="230.1455" y="198.3701">}</text><path d="M314.4326,236.6719 L314.4326,233.6719 C314.4326,226.6719 314.4326,221.6719 314.4326,214.6719 L314.4326,211.6719 " fill="transparent" style="stroke:#181818;stroke-width:1;"/><path d="M314.4326,279.9688 L314.4326,276.9688 C314.4326,269.9688 314.4326,264.9688 314.4326,257.9688 L314.4326,254.9688 " fill="transparent" style="stroke:#181818;stroke-width:1;"/><!--SRC=[jLHDRzim3BthLn3O8Qs1VFLhWsi4NT9cMDAWHPlsEgWnumYp9K-YKcH3__ieErw6eJaCwtmm9FFvyP6FqeKZQQbGEYraASYKG0QU394f85KM5wIC5YB737NAiLB0cpzYlb8EFjv-Xjna3fG6MY5uXxRpjqnlhosyvbivu5R6voaubTKQMmKw9pDiyKuIF4i7t39KQqmXzLRfh8PrIujjBaxfrlb_qkXTawsqQYq9fxW1oPwvO9oYfgsj85wIjonwgJ1FEo80QeE5I1njSXm8iHs9IoKpAmlumKawcKNKrH9WA1TVCskyJaScDnPobQse0d3u9Q2jSRW7_6uy7Wv7emPfhDJPFcmTt483-Ybdn1vm5QiYOwEf_lQyKbJ__oAIRbEVY22As1TZbjrrlvjKgpPjIXnqAwUY29AauXiCUFwNnBQdAABe2zpXDu-EU1t5oSAap1Va_EeinE0ek5zbh03dGjZGeTz9N6cq2vi8Zdezk9bomgg3d33wWzkYypanSLstyui5ZnxloVfTSTjKWV646OSoRRGoTV3Z5MQqbflK46y7UbV1gzHzUD3IqyfOzPr7FKbga_wPNLpm43QNaRZDfQQ7sJMiqJg-Xg3VEUeTdNPw1tEFC94QUk-XtukFJ-FZCvZTpo643yN1fzjhSCRR1V8T5Z8z-N2D7Og9N4kuyvfKWJ7SbAWdbzFc0rpfjR965wX9J1vdEy3PINl89-WUBIk1nvcunAKCTbnf5ivrnF0m7xS_Y6lkWkS2O-1ZCEAn9Bk9GViy_ma0]--></g></svg>
