
<svg xmlns="http://www.w3.org/2000/svg" xmlns:xlink="http://www.w3.org/1999/xlink" contentStyleType="text/css" data-diagram-type="MINDMAP" height="591px" preserveAspectRatio="none" style="width:673px;height:591px;background:#FFFFFF;" version="1.1" viewBox="0 0 673 591" width="673px" zoomAndPan="magnify"><defs/><g><rect fill="#DDDDDD" height="26.2969" id="_legend" rx="7.5" ry="7.5" style="stroke:#000000;stroke-width:1;" width="229.2764" x="220.3662" y="22"/><text fill="#000000" font-family="sans-serif" font-size="14" lengthAdjust="spacing" textLength="219.2764" x="225.3662" y="39.9951">Get logged in user information.</text><rect fill="#000000" height="36.2969" rx="12.5" ry="12.5" style="stroke:#181818;stroke-width:1.5;" width="283.8672" x="193.5708" y="165.8906"/><text fill="#FFFFFF" font-family="sans-serif" font-size="14" font-weight="bold" lengthAdjust="spacing" textLength="259.417" x="203.5708" y="188.8857">/proof/v1/&lt;proof-type&gt;/user-info</text><text fill="#FFFFFF" font-family="sans-serif" font-size="14" lengthAdjust="spacing" textLength="4.4502" x="462.9878" y="188.8857">&#160;</text><text fill="#000000" font-family="sans-serif" font-size="14" lengthAdjust="spacing" textLength="67.8672" x="303.0708" y="241.1826">Response</text><rect fill="#90EE90" height="36.2969" rx="12.5" ry="12.5" style="stroke:#181818;stroke-width:1.5;" width="75.8223" x="89.019" y="270.4844"/><text fill="#000000" font-family="sans-serif" font-size="14" lengthAdjust="spacing" textLength="51.3721" x="99.019" y="293.4795">200 OK</text><rect fill="#F1F1F1" height="248.1563" rx="12.5" ry="12.5" style="stroke:#181818;stroke-width:1.5;" width="213.8604" x="20" y="331.7813"/><text fill="#000000" font-family="monospace" font-size="14" lengthAdjust="spacing" textLength="8.4287" x="30" y="354.7764">{</text><text fill="#000000" font-family="monospace" font-size="14" lengthAdjust="spacing" textLength="84.2871" x="46.8574" y="371.0732">result&#160;:&#160;{</text><text fill="#000000" font-family="monospace" font-size="14" lengthAdjust="spacing" textLength="160.1455" x="63.7148" y="387.3701">id&#160;&#160;&#160;&#160;&#160;&#160;&#160;&#160;:&#160;string,</text><text fill="#000000" font-family="monospace" font-size="14" lengthAdjust="spacing" textLength="160.1455" x="63.7148" y="403.667">name&#160;&#160;&#160;&#160;&#160;&#160;:&#160;string,</text><text fill="#000000" font-family="monospace" font-size="14" lengthAdjust="spacing" textLength="33.7148" x="30" y="419.9639">&#160;&#160;&#160;&#160;</text><text fill="#000000" font-family="monospace" font-size="14" lengthAdjust="spacing" textLength="160.1455" x="63.7148" y="436.2607">keyType&#160;&#160;&#160;:&#160;string,</text><text fill="#000000" font-family="monospace" font-size="14" lengthAdjust="spacing" textLength="160.1455" x="63.7148" y="452.5576">publicKey&#160;:&#160;string,</text><text fill="#000000" font-family="monospace" font-size="14" lengthAdjust="spacing" textLength="33.7148" x="30" y="468.8545">&#160;&#160;&#160;&#160;</text><text fill="#000000" font-family="monospace" font-size="14" lengthAdjust="spacing" textLength="160.1455" x="63.7148" y="485.1514">city&#160;&#160;&#160;&#160;&#160;&#160;:&#160;string,</text><text fill="#000000" font-family="monospace" font-size="14" lengthAdjust="spacing" textLength="160.1455" x="63.7148" y="501.4482">region&#160;&#160;&#160;&#160;:&#160;string,</text><text fill="#000000" font-family="monospace" font-size="14" lengthAdjust="spacing" textLength="151.7168" x="63.7148" y="517.7451">country&#160;&#160;&#160;:&#160;string</text><text fill="#000000" font-family="monospace" font-size="14" lengthAdjust="spacing" textLength="33.7148" x="30" y="534.042">&#160;&#160;&#160;&#160;</text><text fill="#000000" font-family="monospace" font-size="14" lengthAdjust="spacing" textLength="8.4287" x="46.8574" y="550.3389">}</text><text fill="#000000" font-family="monospace" font-size="14" lengthAdjust="spacing" textLength="8.4287" x="30" y="566.6357">}</text><path d="M126.9302,306.7813 L126.9302,309.7813 C126.9302,316.7813 126.9302,321.7813 126.9302,328.7813 L126.9302,331.7813 " fill="transparent" style="stroke:#181818;stroke-width:1;"/><path d="M335.5044,245.4844 L335.5044,248.4844 C335.5044,255.4844 126.9302,260.4844 126.9302,267.4844 L126.9302,270.4844 " fill="transparent" style="stroke:#181818;stroke-width:1;"/><rect fill="#FFBBCC" height="36.2969" rx="12.5" ry="12.5" style="stroke:#181818;stroke-width:1.5;" width="144.6396" x="275.8276" y="270.4844"/><text fill="#000000" font-family="sans-serif" font-size="14" lengthAdjust="spacing" textLength="120.1895" x="285.8276" y="293.4795">400 Bad Request</text><rect fill="#F1F1F1" height="101.4844" rx="12.5" ry="12.5" style="stroke:#181818;stroke-width:1.5;" width="188.5742" x="253.8604" y="331.7813"/><text fill="#000000" font-family="monospace" font-size="14" lengthAdjust="spacing" textLength="8.4287" x="263.8604" y="354.7764">{</text><text fill="#000000" font-family="monospace" font-size="14" lengthAdjust="spacing" textLength="75.8584" x="280.7178" y="371.0732">error&#160;:&#160;{</text><text fill="#000000" font-family="monospace" font-size="14" lengthAdjust="spacing" textLength="134.8594" x="297.5752" y="387.3701">message&#160;:&#160;string</text><text fill="#000000" font-family="monospace" font-size="14" lengthAdjust="spacing" textLength="8.4287" x="280.7178" y="403.667">}</text><text fill="#000000" font-family="monospace" font-size="14" lengthAdjust="spacing" textLength="8.4287" x="263.8604" y="419.9639">}</text><path d="M348.1475,306.7813 L348.1475,309.7813 C348.1475,316.7813 348.1475,321.7813 348.1475,328.7813 L348.1475,331.7813 " fill="transparent" style="stroke:#181818;stroke-width:1;"/><path d="M335.5044,245.4844 L335.5044,248.4844 C335.5044,255.4844 348.1475,260.4844 348.1475,267.4844 L348.1475,270.4844 " fill="transparent" style="stroke:#181818;stroke-width:1;"/><rect fill="#FFA500" height="36.2969" rx="12.5" ry="12.5" style="stroke:#181818;stroke-width:1.5;" width="149.6162" x="481.9136" y="270.4844"/><text fill="#000000" font-family="sans-serif" font-size="14" lengthAdjust="spacing" textLength="125.166" x="491.9136" y="293.4795">401 Unauthorized</text><rect fill="#F1F1F1" height="101.4844" rx="12.5" ry="12.5" style="stroke:#181818;stroke-width:1.5;" width="188.5742" x="462.4346" y="331.7813"/><text fill="#000000" font-family="monospace" font-size="14" lengthAdjust="spacing" textLength="8.4287" x="472.4346" y="354.7764">{</text><text fill="#000000" font-family="monospace" font-size="14" lengthAdjust="spacing" textLength="75.8584" x="489.292" y="371.0732">error&#160;:&#160;{</text><text fill="#000000" font-family="monospace" font-size="14" lengthAdjust="spacing" textLength="134.8594" x="506.1494" y="387.3701">message&#160;:&#160;string</text><text fill="#000000" font-family="monospace" font-size="14" lengthAdjust="spacing" textLength="8.4287" x="489.292" y="403.667">}</text><text fill="#000000" font-family="monospace" font-size="14" lengthAdjust="spacing" textLength="8.4287" x="472.4346" y="419.9639">}</text><path d="M556.7217,306.7813 L556.7217,309.7813 C556.7217,316.7813 556.7217,321.7813 556.7217,328.7813 L556.7217,331.7813 " fill="transparent" style="stroke:#181818;stroke-width:1;"/><path d="M335.5044,245.4844 L335.5044,248.4844 C335.5044,255.4844 556.7217,260.4844 556.7217,267.4844 L556.7217,270.4844 " fill="transparent" style="stroke:#181818;stroke-width:1;"/><path d="M335.5044,202.1875 L335.5044,205.1875 C335.5044,212.1875 335.5044,217.1875 335.5044,224.1875 L335.5044,227.1875 " fill="transparent" style="stroke:#181818;stroke-width:1;"/><text fill="#000000" font-family="sans-serif" font-size="14" lengthAdjust="spacing" textLength="57.4971" x="305.2559" y="136.5889">Request</text><rect fill="#F1F1F1" height="36.2969" rx="12.5" ry="12.5" style="stroke:#181818;stroke-width:1.5;" width="36.8574" x="317.0757" y="61.2969"/><text fill="#000000" font-family="monospace" font-size="14" lengthAdjust="spacing" textLength="16.8574" x="327.0757" y="84.292">{}</text><path d="M335.5044,122.5938 L335.5044,119.5938 C335.5044,112.5938 335.5044,107.5938 335.5044,100.5938 L335.5044,97.5938 " fill="transparent" style="stroke:#181818;stroke-width:1;"/><path d="M335.5044,165.8906 L335.5044,162.8906 C335.5044,155.8906 335.5044,150.8906 335.5044,143.8906 L335.5044,140.8906 " fill="transparent" style="stroke:#181818;stroke-width:1;"/><!--SRC=[fLFRRjf047tVhnYfBubLm91BAzT24H0YSL6Y1F9QBVPWLh5ttRrGkL7-lRCsLf42J_M3FPuvUtRFsPaxOxcsXP1fmKjcLGbMmKPPgmf8XSR42YKPop53cLAjP43F0rh8LPPX2aA2CwZfkrMwu1xUPHxRB64iDhRASSZOOPE9u9dc1RmJKpVJYB8E0KOyUSkqSZ8Tgrnfo4MsipM0oXyUhPN1C-0lq-beD1wtIAMvpCvXc-81wj6Rd11dm7MjhaoLj4tkzqxOPlq7YtkjFXP04FHAhTIsj-_tuZhgsAh4OSzRrF4M1G74SSqv79AhMmj6fCY2u2Syuo-7nb8SH76YKk9yz_nr-8CnxVquXfjIIUD_0XY48JpEYRhsYwY3OnOwgaRZSWlHGQL8uV14OAmMCljQvoKly5I-VhrXjI8rdugbs-GYcMDrQb4YR7MAKMD6hV8vdv3rLbT7-PQhSVlWXXTzJQ97F6sD8_M-GKw8Hwtfrbhj1Hh3gJcE-4zGzs4jkRCxfSKVQlCuRhhclzdP7Kr5Es_iAUVIhfSBsACstez-Tn0ERhhXnSeXpBY4y1lqm-Zg9hgwXUNB2dpvabqyF2t0AASJf37rEssS7xrBDkDx3i_aeIWmWiSIvMmoRnDmB_T2ArcWj6psklm7kBtkZ8I55zHq4dXTiWbkkU-OUqa79nqHh5VJpdUs81SS2Oo0vdBSN5O4qkNvNm00]--></g></svg>
