<svg xmlns="http://www.w3.org/2000/svg" xmlns:xlink="http://www.w3.org/1999/xlink" contentStyleType="text/css" height="1702px" preserveAspectRatio="none" style="width:1137px;height:1702px;background:#FFFFFF;" version="1.1" viewBox="0 0 1137 1702" width="1137px" zoomAndPan="magnify"><defs/><g><line style="stroke:#181818;stroke-width:0.5;stroke-dasharray:5.0,5.0;" x1="42" x2="42" y1="97.5938" y2="515.9844"/><line style="stroke:#A80036;stroke-width:1.0;stroke-dasharray:1.0,4.0;" x1="42" x2="42" y1="515.9844" y2="543.9844"/><line style="stroke:#181818;stroke-width:0.5;stroke-dasharray:5.0,5.0;" x1="42" x2="42" y1="543.9844" y2="602.25"/><line style="stroke:#A80036;stroke-width:1.0;stroke-dasharray:1.0,4.0;" x1="42" x2="42" y1="602.25" y2="630.25"/><line style="stroke:#181818;stroke-width:0.5;stroke-dasharray:5.0,5.0;" x1="42" x2="42" y1="630.25" y2="688.5156"/><line style="stroke:#A80036;stroke-width:1.0;stroke-dasharray:1.0,4.0;" x1="42" x2="42" y1="688.5156" y2="716.5156"/><line style="stroke:#181818;stroke-width:0.5;stroke-dasharray:5.0,5.0;" x1="42" x2="42" y1="716.5156" y2="774.7813"/><line style="stroke:#A80036;stroke-width:1.0;stroke-dasharray:1.0,4.0;" x1="42" x2="42" y1="774.7813" y2="802.7813"/><line style="stroke:#181818;stroke-width:0.5;stroke-dasharray:5.0,5.0;" x1="42" x2="42" y1="802.7813" y2="975.4453"/><line style="stroke:#A80036;stroke-width:1.0;stroke-dasharray:1.0,4.0;" x1="42" x2="42" y1="975.4453" y2="1003.4453"/><line style="stroke:#181818;stroke-width:0.5;stroke-dasharray:5.0,5.0;" x1="42" x2="42" y1="1003.4453" y2="1295.9063"/><line style="stroke:#A80036;stroke-width:1.0;stroke-dasharray:1.0,4.0;" x1="42" x2="42" y1="1295.9063" y2="1323.9063"/><line style="stroke:#181818;stroke-width:0.5;stroke-dasharray:5.0,5.0;" x1="42" x2="42" y1="1323.9063" y2="1411.3047"/><line style="stroke:#A80036;stroke-width:1.0;stroke-dasharray:1.0,4.0;" x1="42" x2="42" y1="1411.3047" y2="1439.3047"/><line style="stroke:#181818;stroke-width:0.5;stroke-dasharray:5.0,5.0;" x1="42" x2="42" y1="1439.3047" y2="1526.7031"/><line style="stroke:#A80036;stroke-width:1.0;stroke-dasharray:1.0,4.0;" x1="42" x2="42" y1="1526.7031" y2="1554.7031"/><line style="stroke:#181818;stroke-width:0.5;stroke-dasharray:5.0,5.0;" x1="42" x2="42" y1="1554.7031" y2="1695.2344"/><line style="stroke:#181818;stroke-width:0.5;stroke-dasharray:5.0,5.0;" x1="189" x2="189" y1="97.5938" y2="515.9844"/><line style="stroke:#A80036;stroke-width:1.0;stroke-dasharray:1.0,4.0;" x1="189" x2="189" y1="515.9844" y2="543.9844"/><line style="stroke:#181818;stroke-width:0.5;stroke-dasharray:5.0,5.0;" x1="189" x2="189" y1="543.9844" y2="602.25"/><line style="stroke:#A80036;stroke-width:1.0;stroke-dasharray:1.0,4.0;" x1="189" x2="189" y1="602.25" y2="630.25"/><line style="stroke:#181818;stroke-width:0.5;stroke-dasharray:5.0,5.0;" x1="189" x2="189" y1="630.25" y2="688.5156"/><line style="stroke:#A80036;stroke-width:1.0;stroke-dasharray:1.0,4.0;" x1="189" x2="189" y1="688.5156" y2="716.5156"/><line style="stroke:#181818;stroke-width:0.5;stroke-dasharray:5.0,5.0;" x1="189" x2="189" y1="716.5156" y2="774.7813"/><line style="stroke:#A80036;stroke-width:1.0;stroke-dasharray:1.0,4.0;" x1="189" x2="189" y1="774.7813" y2="802.7813"/><line style="stroke:#181818;stroke-width:0.5;stroke-dasharray:5.0,5.0;" x1="189" x2="189" y1="802.7813" y2="975.4453"/><line style="stroke:#A80036;stroke-width:1.0;stroke-dasharray:1.0,4.0;" x1="189" x2="189" y1="975.4453" y2="1003.4453"/><line style="stroke:#181818;stroke-width:0.5;stroke-dasharray:5.0,5.0;" x1="189" x2="189" y1="1003.4453" y2="1295.9063"/><line style="stroke:#A80036;stroke-width:1.0;stroke-dasharray:1.0,4.0;" x1="189" x2="189" y1="1295.9063" y2="1323.9063"/><line style="stroke:#181818;stroke-width:0.5;stroke-dasharray:5.0,5.0;" x1="189" x2="189" y1="1323.9063" y2="1411.3047"/><line style="stroke:#A80036;stroke-width:1.0;stroke-dasharray:1.0,4.0;" x1="189" x2="189" y1="1411.3047" y2="1439.3047"/><line style="stroke:#181818;stroke-width:0.5;stroke-dasharray:5.0,5.0;" x1="189" x2="189" y1="1439.3047" y2="1526.7031"/><line style="stroke:#A80036;stroke-width:1.0;stroke-dasharray:1.0,4.0;" x1="189" x2="189" y1="1526.7031" y2="1554.7031"/><line style="stroke:#181818;stroke-width:0.5;stroke-dasharray:5.0,5.0;" x1="189" x2="189" y1="1554.7031" y2="1695.2344"/><line style="stroke:#181818;stroke-width:0.5;stroke-dasharray:5.0,5.0;" x1="475.5" x2="475.5" y1="97.5938" y2="515.9844"/><line style="stroke:#A80036;stroke-width:1.0;stroke-dasharray:1.0,4.0;" x1="475.5" x2="475.5" y1="515.9844" y2="543.9844"/><line style="stroke:#181818;stroke-width:0.5;stroke-dasharray:5.0,5.0;" x1="475.5" x2="475.5" y1="543.9844" y2="602.25"/><line style="stroke:#A80036;stroke-width:1.0;stroke-dasharray:1.0,4.0;" x1="475.5" x2="475.5" y1="602.25" y2="630.25"/><line style="stroke:#181818;stroke-width:0.5;stroke-dasharray:5.0,5.0;" x1="475.5" x2="475.5" y1="630.25" y2="688.5156"/><line style="stroke:#A80036;stroke-width:1.0;stroke-dasharray:1.0,4.0;" x1="475.5" x2="475.5" y1="688.5156" y2="716.5156"/><line style="stroke:#181818;stroke-width:0.5;stroke-dasharray:5.0,5.0;" x1="475.5" x2="475.5" y1="716.5156" y2="774.7813"/><line style="stroke:#A80036;stroke-width:1.0;stroke-dasharray:1.0,4.0;" x1="475.5" x2="475.5" y1="774.7813" y2="802.7813"/><line style="stroke:#181818;stroke-width:0.5;stroke-dasharray:5.0,5.0;" x1="475.5" x2="475.5" y1="802.7813" y2="975.4453"/><line style="stroke:#A80036;stroke-width:1.0;stroke-dasharray:1.0,4.0;" x1="475.5" x2="475.5" y1="975.4453" y2="1003.4453"/><line style="stroke:#181818;stroke-width:0.5;stroke-dasharray:5.0,5.0;" x1="475.5" x2="475.5" y1="1003.4453" y2="1295.9063"/><line style="stroke:#A80036;stroke-width:1.0;stroke-dasharray:1.0,4.0;" x1="475.5" x2="475.5" y1="1295.9063" y2="1323.9063"/><line style="stroke:#181818;stroke-width:0.5;stroke-dasharray:5.0,5.0;" x1="475.5" x2="475.5" y1="1323.9063" y2="1411.3047"/><line style="stroke:#A80036;stroke-width:1.0;stroke-dasharray:1.0,4.0;" x1="475.5" x2="475.5" y1="1411.3047" y2="1439.3047"/><line style="stroke:#181818;stroke-width:0.5;stroke-dasharray:5.0,5.0;" x1="475.5" x2="475.5" y1="1439.3047" y2="1526.7031"/><line style="stroke:#A80036;stroke-width:1.0;stroke-dasharray:1.0,4.0;" x1="475.5" x2="475.5" y1="1526.7031" y2="1554.7031"/><line style="stroke:#181818;stroke-width:0.5;stroke-dasharray:5.0,5.0;" x1="475.5" x2="475.5" y1="1554.7031" y2="1695.2344"/><line style="stroke:#181818;stroke-width:0.5;stroke-dasharray:5.0,5.0;" x1="623" x2="623" y1="97.5938" y2="515.9844"/><line style="stroke:#A80036;stroke-width:1.0;stroke-dasharray:1.0,4.0;" x1="623" x2="623" y1="515.9844" y2="543.9844"/><line style="stroke:#181818;stroke-width:0.5;stroke-dasharray:5.0,5.0;" x1="623" x2="623" y1="543.9844" y2="602.25"/><line style="stroke:#A80036;stroke-width:1.0;stroke-dasharray:1.0,4.0;" x1="623" x2="623" y1="602.25" y2="630.25"/><line style="stroke:#181818;stroke-width:0.5;stroke-dasharray:5.0,5.0;" x1="623" x2="623" y1="630.25" y2="688.5156"/><line style="stroke:#A80036;stroke-width:1.0;stroke-dasharray:1.0,4.0;" x1="623" x2="623" y1="688.5156" y2="716.5156"/><line style="stroke:#181818;stroke-width:0.5;stroke-dasharray:5.0,5.0;" x1="623" x2="623" y1="716.5156" y2="774.7813"/><line style="stroke:#A80036;stroke-width:1.0;stroke-dasharray:1.0,4.0;" x1="623" x2="623" y1="774.7813" y2="802.7813"/><line style="stroke:#181818;stroke-width:0.5;stroke-dasharray:5.0,5.0;" x1="623" x2="623" y1="802.7813" y2="975.4453"/><line style="stroke:#A80036;stroke-width:1.0;stroke-dasharray:1.0,4.0;" x1="623" x2="623" y1="975.4453" y2="1003.4453"/><line style="stroke:#181818;stroke-width:0.5;stroke-dasharray:5.0,5.0;" x1="623" x2="623" y1="1003.4453" y2="1295.9063"/><line style="stroke:#A80036;stroke-width:1.0;stroke-dasharray:1.0,4.0;" x1="623" x2="623" y1="1295.9063" y2="1323.9063"/><line style="stroke:#181818;stroke-width:0.5;stroke-dasharray:5.0,5.0;" x1="623" x2="623" y1="1323.9063" y2="1411.3047"/><line style="stroke:#A80036;stroke-width:1.0;stroke-dasharray:1.0,4.0;" x1="623" x2="623" y1="1411.3047" y2="1439.3047"/><line style="stroke:#181818;stroke-width:0.5;stroke-dasharray:5.0,5.0;" x1="623" x2="623" y1="1439.3047" y2="1526.7031"/><line style="stroke:#A80036;stroke-width:1.0;stroke-dasharray:1.0,4.0;" x1="623" x2="623" y1="1526.7031" y2="1554.7031"/><line style="stroke:#181818;stroke-width:0.5;stroke-dasharray:5.0,5.0;" x1="623" x2="623" y1="1554.7031" y2="1695.2344"/><line style="stroke:#181818;stroke-width:0.5;stroke-dasharray:5.0,5.0;" x1="730" x2="730" y1="97.5938" y2="515.9844"/><line style="stroke:#A80036;stroke-width:1.0;stroke-dasharray:1.0,4.0;" x1="730" x2="730" y1="515.9844" y2="543.9844"/><line style="stroke:#181818;stroke-width:0.5;stroke-dasharray:5.0,5.0;" x1="730" x2="730" y1="543.9844" y2="602.25"/><line style="stroke:#A80036;stroke-width:1.0;stroke-dasharray:1.0,4.0;" x1="730" x2="730" y1="602.25" y2="630.25"/><line style="stroke:#181818;stroke-width:0.5;stroke-dasharray:5.0,5.0;" x1="730" x2="730" y1="630.25" y2="688.5156"/><line style="stroke:#A80036;stroke-width:1.0;stroke-dasharray:1.0,4.0;" x1="730" x2="730" y1="688.5156" y2="716.5156"/><line style="stroke:#181818;stroke-width:0.5;stroke-dasharray:5.0,5.0;" x1="730" x2="730" y1="716.5156" y2="774.7813"/><line style="stroke:#A80036;stroke-width:1.0;stroke-dasharray:1.0,4.0;" x1="730" x2="730" y1="774.7813" y2="802.7813"/><line style="stroke:#181818;stroke-width:0.5;stroke-dasharray:5.0,5.0;" x1="730" x2="730" y1="802.7813" y2="975.4453"/><line style="stroke:#A80036;stroke-width:1.0;stroke-dasharray:1.0,4.0;" x1="730" x2="730" y1="975.4453" y2="1003.4453"/><line style="stroke:#181818;stroke-width:0.5;stroke-dasharray:5.0,5.0;" x1="730" x2="730" y1="1003.4453" y2="1295.9063"/><line style="stroke:#A80036;stroke-width:1.0;stroke-dasharray:1.0,4.0;" x1="730" x2="730" y1="1295.9063" y2="1323.9063"/><line style="stroke:#181818;stroke-width:0.5;stroke-dasharray:5.0,5.0;" x1="730" x2="730" y1="1323.9063" y2="1411.3047"/><line style="stroke:#A80036;stroke-width:1.0;stroke-dasharray:1.0,4.0;" x1="730" x2="730" y1="1411.3047" y2="1439.3047"/><line style="stroke:#181818;stroke-width:0.5;stroke-dasharray:5.0,5.0;" x1="730" x2="730" y1="1439.3047" y2="1526.7031"/><line style="stroke:#A80036;stroke-width:1.0;stroke-dasharray:1.0,4.0;" x1="730" x2="730" y1="1526.7031" y2="1554.7031"/><line style="stroke:#181818;stroke-width:0.5;stroke-dasharray:5.0,5.0;" x1="730" x2="730" y1="1554.7031" y2="1695.2344"/><line style="stroke:#181818;stroke-width:0.5;stroke-dasharray:5.0,5.0;" x1="837" x2="837" y1="97.5938" y2="515.9844"/><line style="stroke:#A80036;stroke-width:1.0;stroke-dasharray:1.0,4.0;" x1="837" x2="837" y1="515.9844" y2="543.9844"/><line style="stroke:#181818;stroke-width:0.5;stroke-dasharray:5.0,5.0;" x1="837" x2="837" y1="543.9844" y2="602.25"/><line style="stroke:#A80036;stroke-width:1.0;stroke-dasharray:1.0,4.0;" x1="837" x2="837" y1="602.25" y2="630.25"/><line style="stroke:#181818;stroke-width:0.5;stroke-dasharray:5.0,5.0;" x1="837" x2="837" y1="630.25" y2="688.5156"/><line style="stroke:#A80036;stroke-width:1.0;stroke-dasharray:1.0,4.0;" x1="837" x2="837" y1="688.5156" y2="716.5156"/><line style="stroke:#181818;stroke-width:0.5;stroke-dasharray:5.0,5.0;" x1="837" x2="837" y1="716.5156" y2="774.7813"/><line style="stroke:#A80036;stroke-width:1.0;stroke-dasharray:1.0,4.0;" x1="837" x2="837" y1="774.7813" y2="802.7813"/><line style="stroke:#181818;stroke-width:0.5;stroke-dasharray:5.0,5.0;" x1="837" x2="837" y1="802.7813" y2="975.4453"/><line style="stroke:#A80036;stroke-width:1.0;stroke-dasharray:1.0,4.0;" x1="837" x2="837" y1="975.4453" y2="1003.4453"/><line style="stroke:#181818;stroke-width:0.5;stroke-dasharray:5.0,5.0;" x1="837" x2="837" y1="1003.4453" y2="1295.9063"/><line style="stroke:#A80036;stroke-width:1.0;stroke-dasharray:1.0,4.0;" x1="837" x2="837" y1="1295.9063" y2="1323.9063"/><line style="stroke:#181818;stroke-width:0.5;stroke-dasharray:5.0,5.0;" x1="837" x2="837" y1="1323.9063" y2="1411.3047"/><line style="stroke:#A80036;stroke-width:1.0;stroke-dasharray:1.0,4.0;" x1="837" x2="837" y1="1411.3047" y2="1439.3047"/><line style="stroke:#181818;stroke-width:0.5;stroke-dasharray:5.0,5.0;" x1="837" x2="837" y1="1439.3047" y2="1526.7031"/><line style="stroke:#A80036;stroke-width:1.0;stroke-dasharray:1.0,4.0;" x1="837" x2="837" y1="1526.7031" y2="1554.7031"/><line style="stroke:#181818;stroke-width:0.5;stroke-dasharray:5.0,5.0;" x1="837" x2="837" y1="1554.7031" y2="1695.2344"/><line style="stroke:#181818;stroke-width:0.5;stroke-dasharray:5.0,5.0;" x1="1026" x2="1026" y1="97.5938" y2="515.9844"/><line style="stroke:#A80036;stroke-width:1.0;stroke-dasharray:1.0,4.0;" x1="1026" x2="1026" y1="515.9844" y2="543.9844"/><line style="stroke:#181818;stroke-width:0.5;stroke-dasharray:5.0,5.0;" x1="1026" x2="1026" y1="543.9844" y2="602.25"/><line style="stroke:#A80036;stroke-width:1.0;stroke-dasharray:1.0,4.0;" x1="1026" x2="1026" y1="602.25" y2="630.25"/><line style="stroke:#181818;stroke-width:0.5;stroke-dasharray:5.0,5.0;" x1="1026" x2="1026" y1="630.25" y2="688.5156"/><line style="stroke:#A80036;stroke-width:1.0;stroke-dasharray:1.0,4.0;" x1="1026" x2="1026" y1="688.5156" y2="716.5156"/><line style="stroke:#181818;stroke-width:0.5;stroke-dasharray:5.0,5.0;" x1="1026" x2="1026" y1="716.5156" y2="774.7813"/><line style="stroke:#A80036;stroke-width:1.0;stroke-dasharray:1.0,4.0;" x1="1026" x2="1026" y1="774.7813" y2="802.7813"/><line style="stroke:#181818;stroke-width:0.5;stroke-dasharray:5.0,5.0;" x1="1026" x2="1026" y1="802.7813" y2="975.4453"/><line style="stroke:#A80036;stroke-width:1.0;stroke-dasharray:1.0,4.0;" x1="1026" x2="1026" y1="975.4453" y2="1003.4453"/><line style="stroke:#181818;stroke-width:0.5;stroke-dasharray:5.0,5.0;" x1="1026" x2="1026" y1="1003.4453" y2="1295.9063"/><line style="stroke:#A80036;stroke-width:1.0;stroke-dasharray:1.0,4.0;" x1="1026" x2="1026" y1="1295.9063" y2="1323.9063"/><line style="stroke:#181818;stroke-width:0.5;stroke-dasharray:5.0,5.0;" x1="1026" x2="1026" y1="1323.9063" y2="1411.3047"/><line style="stroke:#A80036;stroke-width:1.0;stroke-dasharray:1.0,4.0;" x1="1026" x2="1026" y1="1411.3047" y2="1439.3047"/><line style="stroke:#181818;stroke-width:0.5;stroke-dasharray:5.0,5.0;" x1="1026" x2="1026" y1="1439.3047" y2="1526.7031"/><line style="stroke:#A80036;stroke-width:1.0;stroke-dasharray:1.0,4.0;" x1="1026" x2="1026" y1="1526.7031" y2="1554.7031"/><line style="stroke:#181818;stroke-width:0.5;stroke-dasharray:5.0,5.0;" x1="1026" x2="1026" y1="1554.7031" y2="1695.2344"/><text fill="#000000" font-family="sans-serif" font-size="14" lengthAdjust="spacing" textLength="69" x="5" y="77.9951">Challenge</text><text fill="#000000" font-family="sans-serif" font-size="14" lengthAdjust="spacing" textLength="50" x="14.5" y="94.292">initiator</text><ellipse cx="42.5" cy="13.5" fill="#E2E2F0" rx="8" ry="8" style="stroke:#181818;stroke-width:0.5;"/><path d="M42.5,21.5 L42.5,48.5 M29.5,29.5 L55.5,29.5 M42.5,48.5 L29.5,63.5 M42.5,48.5 L55.5,63.5 " fill="none" style="stroke:#181818;stroke-width:0.5;"/><rect fill="#E2E2F0" height="30.2969" rx="2.5" ry="2.5" style="stroke:#181818;stroke-width:0.5;" width="95" x="142" y="66.2969"/><text fill="#000000" font-family="sans-serif" font-size="14" lengthAdjust="spacing" textLength="81" x="149" y="86.292">Coordinator</text><rect fill="#E2E2F0" height="30.2969" rx="2.5" ry="2.5" style="stroke:#181818;stroke-width:0.5;" width="58" x="446.5" y="66.2969"/><text fill="#000000" font-family="sans-serif" font-size="14" lengthAdjust="spacing" textLength="44" x="453.5" y="86.292">Prover</text><rect fill="#E2E2F0" height="30.2969" rx="2.5" ry="2.5" style="stroke:#181818;stroke-width:0.5;" width="97" x="575" y="66.2969"/><text fill="#000000" font-family="sans-serif" font-size="14" lengthAdjust="spacing" textLength="83" x="582" y="86.292">Challenger1</text><rect fill="#E2E2F0" height="30.2969" rx="2.5" ry="2.5" style="stroke:#181818;stroke-width:0.5;" width="97" x="682" y="66.2969"/><text fill="#000000" font-family="sans-serif" font-size="14" lengthAdjust="spacing" textLength="83" x="689" y="86.292">Challenger2</text><rect fill="#E2E2F0" height="30.2969" rx="2.5" ry="2.5" style="stroke:#181818;stroke-width:0.5;" width="97" x="789" y="66.2969"/><text fill="#000000" font-family="sans-serif" font-size="14" lengthAdjust="spacing" textLength="83" x="796" y="86.292">Challenger3</text><text fill="#000000" font-family="sans-serif" font-size="14" lengthAdjust="spacing" textLength="191" x="928" y="94.292">Witnesschain_DCL_contract</text><ellipse cx="1026.5" cy="65.2969" fill="#E2E2F0" rx="12" ry="12" style="stroke:#181818;stroke-width:0.5;"/><line style="stroke:#181818;stroke-width:0.5;" x1="1014.5" x2="1038.5" y1="79.2969" y2="79.2969"/><path d="M377,112.5938 L377,167.5938 L573,167.5938 L573,122.5938 L563,112.5938 L377,112.5938 " fill="#FEFFDD" style="stroke:#181818;stroke-width:0.5;"/><path d="M563,112.5938 L563,122.5938 L573,122.5938 L563,112.5938 " fill="#FEFFDD" style="stroke:#181818;stroke-width:0.5;"/><text fill="#000000" font-family="sans-serif" font-size="13" lengthAdjust="spacing" textLength="175" x="383" y="129.6606">claims = {"bandwidth":50},</text><text fill="#000000" font-family="sans-serif" font-size="13" lengthAdjust="spacing" textLength="78" x="383" y="144.7935">ip = 1.2.3.4,</text><text fill="#000000" font-family="sans-serif" font-size="13" lengthAdjust="spacing" textLength="116" x="383" y="159.9263">pubkey = 0x123...</text><path d="M525,177.9922 L525,247.9922 L721,247.9922 L721,187.9922 L711,177.9922 L525,177.9922 " fill="#FEFFDD" style="stroke:#181818;stroke-width:0.5;"/><path d="M711,177.9922 L711,187.9922 L721,187.9922 L711,177.9922 " fill="#FEFFDD" style="stroke:#181818;stroke-width:0.5;"/><text fill="#000000" font-family="sans-serif" font-size="13" lengthAdjust="spacing" textLength="175" x="531" y="195.0591">claims = {"bandwidth":20},</text><text fill="#000000" font-family="sans-serif" font-size="13" lengthAdjust="spacing" textLength="110" x="531" y="210.1919">ip = 10.20.30.40,</text><text fill="#000000" font-family="sans-serif" font-size="13" lengthAdjust="spacing" textLength="134" x="531" y="225.3247">publicKey = 0x456...,</text><text fill="#000000" font-family="sans-serif" font-size="13" lengthAdjust="spacing" textLength="154" x="531" y="240.4575">walletPublicKey = 0x789</text><path d="M632,258.5234 L632,328.5234 L828,328.5234 L828,268.5234 L818,258.5234 L632,258.5234 " fill="#FEFFDD" style="stroke:#181818;stroke-width:0.5;"/><path d="M818,258.5234 L818,268.5234 L828,268.5234 L818,258.5234 " fill="#FEFFDD" style="stroke:#181818;stroke-width:0.5;"/><text fill="#000000" font-family="sans-serif" font-size="13" lengthAdjust="spacing" textLength="175" x="638" y="275.5903">claims = {"bandwidth":15},</text><text fill="#000000" font-family="sans-serif" font-size="13" lengthAdjust="spacing" textLength="110" x="638" y="290.7231">ip = 50.60.70.80,</text><text fill="#000000" font-family="sans-serif" font-size="13" lengthAdjust="spacing" textLength="133" x="638" y="305.856">publicKey = 0xabc...,</text><text fill="#000000" font-family="sans-serif" font-size="13" lengthAdjust="spacing" textLength="162" x="638" y="320.9888">walletPublicKey = 0xdef...</text><path d="M739,339.0547 L739,409.0547 L935,409.0547 L935,349.0547 L925,339.0547 L739,339.0547 " fill="#FEFFDD" style="stroke:#181818;stroke-width:0.5;"/><path d="M925,339.0547 L925,349.0547 L935,349.0547 L925,339.0547 " fill="#FEFFDD" style="stroke:#181818;stroke-width:0.5;"/><text fill="#000000" font-family="sans-serif" font-size="13" lengthAdjust="spacing" textLength="175" x="745" y="356.1216">claims = {"bandwidth":10},</text><text fill="#000000" font-family="sans-serif" font-size="13" lengthAdjust="spacing" textLength="134" x="745" y="371.2544">ip = 90.100.110.120,</text><text fill="#000000" font-family="sans-serif" font-size="13" lengthAdjust="spacing" textLength="122" x="745" y="386.3872">publicKey = 0xaaa,</text><text fill="#000000" font-family="sans-serif" font-size="13" lengthAdjust="spacing" textLength="166" x="745" y="401.52">walletPublicKey = 0xbbb...</text><rect fill="#EEEEEE" height="3" style="stroke:#EEEEEE;stroke-width:1.0;" width="1130" x="0" y="435.1523"/><line style="stroke:#000000;stroke-width:1.0;" x1="0" x2="1130" y1="435.1523" y2="435.1523"/><line style="stroke:#000000;stroke-width:1.0;" x1="0" x2="1130" y1="438.1523" y2="438.1523"/><rect fill="#EEEEEE" height="23.1328" style="stroke:#000000;stroke-width:2.0;" width="59" x="535.5" y="424.5859"/><text fill="#000000" font-family="sans-serif" font-size="13" font-weight="bold" lengthAdjust="spacing" textLength="40" x="541.5" y="440.6528">Login</text><polygon fill="#181818" points="200.5,474.8516,190.5,478.8516,200.5,482.8516,196.5,478.8516" style="stroke:#181818;stroke-width:1.0;"/><line style="stroke:#181818;stroke-width:1.0;" x1="194.5" x2="474.5" y1="478.8516" y2="478.8516"/><text fill="#000000" font-family="sans-serif" font-size="13" lengthAdjust="spacing" textLength="262" x="206.5" y="473.7856">Login with publicKey &amp; Create Websocket</text><polygon fill="#181818" points="200.5,503.9844,190.5,507.9844,200.5,511.9844,196.5,507.9844" style="stroke:#181818;stroke-width:1.0;"/><line style="stroke:#181818;stroke-width:1.0;" x1="194.5" x2="474.5" y1="507.9844" y2="507.9844"/><text fill="#000000" font-family="sans-serif" font-size="13" lengthAdjust="spacing" textLength="236" x="206.5" y="502.9185">Ping every 30 seconds on Websocket</text><polygon fill="#181818" points="200.5,561.1172,190.5,565.1172,200.5,569.1172,196.5,565.1172" style="stroke:#181818;stroke-width:1.0;"/><line style="stroke:#181818;stroke-width:1.0;" x1="194.5" x2="622.5" y1="565.1172" y2="565.1172"/><text fill="#000000" font-family="sans-serif" font-size="13" lengthAdjust="spacing" textLength="262" x="206.5" y="560.0513">Login with publicKey &amp; Create Websocket</text><polygon fill="#181818" points="200.5,590.25,190.5,594.25,200.5,598.25,196.5,594.25" style="stroke:#181818;stroke-width:1.0;"/><line style="stroke:#181818;stroke-width:1.0;" x1="194.5" x2="622.5" y1="594.25" y2="594.25"/><text fill="#000000" font-family="sans-serif" font-size="13" lengthAdjust="spacing" textLength="236" x="206.5" y="589.1841">Ping every 30 seconds on Websocket</text><polygon fill="#181818" points="200.5,647.3828,190.5,651.3828,200.5,655.3828,196.5,651.3828" style="stroke:#181818;stroke-width:1.0;"/><line style="stroke:#181818;stroke-width:1.0;" x1="194.5" x2="729.5" y1="651.3828" y2="651.3828"/><text fill="#000000" font-family="sans-serif" font-size="13" lengthAdjust="spacing" textLength="262" x="206.5" y="646.3169">Login with publicKey &amp; Create Websocket</text><polygon fill="#181818" points="200.5,676.5156,190.5,680.5156,200.5,684.5156,196.5,680.5156" style="stroke:#181818;stroke-width:1.0;"/><line style="stroke:#181818;stroke-width:1.0;" x1="194.5" x2="729.5" y1="680.5156" y2="680.5156"/><text fill="#000000" font-family="sans-serif" font-size="13" lengthAdjust="spacing" textLength="236" x="206.5" y="675.4497">Ping every 30 seconds on Websocket</text><polygon fill="#181818" points="200.5,733.6484,190.5,737.6484,200.5,741.6484,196.5,737.6484" style="stroke:#181818;stroke-width:1.0;"/><line style="stroke:#181818;stroke-width:1.0;" x1="194.5" x2="836.5" y1="737.6484" y2="737.6484"/><text fill="#000000" font-family="sans-serif" font-size="13" lengthAdjust="spacing" textLength="262" x="206.5" y="732.5825">Login with publicKey &amp; Create Websocket</text><polygon fill="#181818" points="200.5,762.7813,190.5,766.7813,200.5,770.7813,196.5,766.7813" style="stroke:#181818;stroke-width:1.0;"/><line style="stroke:#181818;stroke-width:1.0;" x1="194.5" x2="836.5" y1="766.7813" y2="766.7813"/><text fill="#000000" font-family="sans-serif" font-size="13" lengthAdjust="spacing" textLength="236" x="206.5" y="761.7153">Ping every 30 seconds on Websocket</text><rect fill="#EEEEEE" height="3" style="stroke:#EEEEEE;stroke-width:1.0;" width="1130" x="0" y="823.3477"/><line style="stroke:#000000;stroke-width:1.0;" x1="0" x2="1130" y1="823.3477" y2="823.3477"/><line style="stroke:#000000;stroke-width:1.0;" x1="0" x2="1130" y1="826.3477" y2="826.3477"/><rect fill="#EEEEEE" height="23.1328" style="stroke:#000000;stroke-width:2.0;" width="163" x="483.5" y="812.7813"/><text fill="#000000" font-family="sans-serif" font-size="13" font-weight="bold" lengthAdjust="spacing" textLength="144" x="489.5" y="828.8481">Launch a Challenge</text><polygon fill="#181818" points="177.5,863.0469,187.5,867.0469,177.5,871.0469,181.5,867.0469" style="stroke:#181818;stroke-width:1.0;"/><line style="stroke:#181818;stroke-width:1.0;" x1="42.5" x2="183.5" y1="867.0469" y2="867.0469"/><text fill="#000000" font-family="sans-serif" font-size="13" lengthAdjust="spacing" textLength="34" x="49.5" y="861.981">Login</text><polygon fill="#181818" points="1014.5,892.1797,1024.5,896.1797,1014.5,900.1797,1018.5,896.1797" style="stroke:#181818;stroke-width:1.0;"/><line style="stroke:#181818;stroke-width:1.0;" x1="42.5" x2="1020.5" y1="896.1797" y2="896.1797"/><text fill="#000000" font-family="sans-serif" font-size="13" lengthAdjust="spacing" textLength="129" x="49.5" y="891.1138">Request a challenge</text><polygon fill="#181818" points="177.5,921.3125,187.5,925.3125,177.5,929.3125,181.5,925.3125" style="stroke:#181818;stroke-width:1.0;"/><line style="stroke:#181818;stroke-width:1.0;" x1="42.5" x2="183.5" y1="925.3125" y2="925.3125"/><text fill="#000000" font-family="sans-serif" font-size="13" lengthAdjust="spacing" textLength="123" x="49.5" y="920.2466">Launch a challenge</text><line style="stroke:#181818;stroke-width:1.0;" x1="189.5" x2="231.5" y1="954.4453" y2="954.4453"/><line style="stroke:#181818;stroke-width:1.0;" x1="231.5" x2="231.5" y1="954.4453" y2="967.4453"/><line style="stroke:#181818;stroke-width:1.0;" x1="190.5" x2="231.5" y1="967.4453" y2="967.4453"/><polygon fill="#181818" points="200.5,963.4453,190.5,967.4453,200.5,971.4453,196.5,967.4453" style="stroke:#181818;stroke-width:1.0;"/><text fill="#000000" font-family="sans-serif" font-size="13" lengthAdjust="spacing" textLength="161" x="196.5" y="949.3794">Choose challengers 1,2,3</text><polygon fill="#181818" points="463.5,1065.9766,473.5,1069.9766,463.5,1073.9766,467.5,1069.9766" style="stroke:#181818;stroke-width:1.0;"/><line style="stroke:#181818;stroke-width:1.0;" x1="189.5" x2="469.5" y1="1069.9766" y2="1069.9766"/><text fill="#000000" font-family="sans-serif" font-size="13" lengthAdjust="spacing" textLength="115" x="196.5" y="1019.5122">challenge info = {</text><text fill="#000000" font-family="sans-serif" font-size="13" lengthAdjust="spacing" textLength="90" x="228.5" y="1034.645">challengers : [</text><text fill="#000000" font-family="sans-serif" font-size="13" lengthAdjust="spacing" textLength="9" x="228.5" y="1049.7778">],</text><text fill="#000000" font-family="sans-serif" font-size="13" lengthAdjust="spacing" textLength="8" x="196.5" y="1064.9106">}</text><polygon fill="#181818" points="611.5,1095.1094,621.5,1099.1094,611.5,1103.1094,615.5,1099.1094" style="stroke:#181818;stroke-width:1.0;"/><line style="stroke:#181818;stroke-width:1.0;" x1="189.5" x2="617.5" y1="1099.1094" y2="1099.1094"/><text fill="#000000" font-family="sans-serif" font-size="13" lengthAdjust="spacing" textLength="88" x="196.5" y="1094.0435">challenge info</text><polygon fill="#181818" points="718.5,1124.2422,728.5,1128.2422,718.5,1132.2422,722.5,1128.2422" style="stroke:#181818;stroke-width:1.0;"/><line style="stroke:#181818;stroke-width:1.0;" x1="189.5" x2="724.5" y1="1128.2422" y2="1128.2422"/><text fill="#000000" font-family="sans-serif" font-size="13" lengthAdjust="spacing" textLength="88" x="196.5" y="1123.1763">challenge info</text><polygon fill="#181818" points="825.5,1153.375,835.5,1157.375,825.5,1161.375,829.5,1157.375" style="stroke:#181818;stroke-width:1.0;"/><line style="stroke:#181818;stroke-width:1.0;" x1="189.5" x2="831.5" y1="1157.375" y2="1157.375"/><text fill="#000000" font-family="sans-serif" font-size="13" lengthAdjust="spacing" textLength="88" x="196.5" y="1152.3091">challenge info</text><rect fill="#EEEEEE" height="3" style="stroke:#EEEEEE;stroke-width:1.0;" width="1130" x="0" y="1185.9414"/><line style="stroke:#000000;stroke-width:1.0;" x1="0" x2="1130" y1="1185.9414" y2="1185.9414"/><line style="stroke:#000000;stroke-width:1.0;" x1="0" x2="1130" y1="1188.9414" y2="1188.9414"/><rect fill="#EEEEEE" height="23.1328" style="stroke:#000000;stroke-width:2.0;" width="92" x="519" y="1175.375"/><text fill="#000000" font-family="sans-serif" font-size="13" font-weight="bold" lengthAdjust="spacing" textLength="73" x="525" y="1191.4419">Challenge</text><polygon fill="#181818" points="486.5,1225.6406,476.5,1229.6406,486.5,1233.6406,482.5,1229.6406" style="stroke:#181818;stroke-width:1.0;"/><line style="stroke:#181818;stroke-width:1.0;" x1="480.5" x2="622.5" y1="1229.6406" y2="1229.6406"/><text fill="#000000" font-family="sans-serif" font-size="13" lengthAdjust="spacing" textLength="115" x="492.5" y="1224.5747">challenge packets</text><polygon fill="#181818" points="486.5,1254.7734,476.5,1258.7734,486.5,1262.7734,482.5,1258.7734" style="stroke:#181818;stroke-width:1.0;"/><line style="stroke:#181818;stroke-width:1.0;" x1="480.5" x2="729.5" y1="1258.7734" y2="1258.7734"/><text fill="#000000" font-family="sans-serif" font-size="13" lengthAdjust="spacing" textLength="115" x="492.5" y="1253.7075">challenge packets</text><polygon fill="#181818" points="486.5,1283.9063,476.5,1287.9063,486.5,1291.9063,482.5,1287.9063" style="stroke:#181818;stroke-width:1.0;"/><line style="stroke:#181818;stroke-width:1.0;" x1="480.5" x2="836.5" y1="1287.9063" y2="1287.9063"/><text fill="#000000" font-family="sans-serif" font-size="13" lengthAdjust="spacing" textLength="115" x="492.5" y="1282.8403">challenge packets</text><polygon fill="#181818" points="611.5,1341.0391,621.5,1345.0391,611.5,1349.0391,615.5,1345.0391" style="stroke:#181818;stroke-width:1.0;"/><line style="stroke:#181818;stroke-width:1.0;" x1="475.5" x2="617.5" y1="1345.0391" y2="1345.0391"/><text fill="#000000" font-family="sans-serif" font-size="13" lengthAdjust="spacing" textLength="124" x="482.5" y="1339.9731">challenge response</text><polygon fill="#181818" points="718.5,1370.1719,728.5,1374.1719,718.5,1378.1719,722.5,1374.1719" style="stroke:#181818;stroke-width:1.0;"/><line style="stroke:#181818;stroke-width:1.0;" x1="475.5" x2="724.5" y1="1374.1719" y2="1374.1719"/><text fill="#000000" font-family="sans-serif" font-size="13" lengthAdjust="spacing" textLength="124" x="482.5" y="1369.106">challenge response</text><polygon fill="#181818" points="825.5,1399.3047,835.5,1403.3047,825.5,1407.3047,829.5,1403.3047" style="stroke:#181818;stroke-width:1.0;"/><line style="stroke:#181818;stroke-width:1.0;" x1="475.5" x2="831.5" y1="1403.3047" y2="1403.3047"/><text fill="#000000" font-family="sans-serif" font-size="13" lengthAdjust="spacing" textLength="124" x="482.5" y="1398.2388">challenge response</text><polygon fill="#181818" points="200.5,1456.4375,190.5,1460.4375,200.5,1464.4375,196.5,1460.4375" style="stroke:#181818;stroke-width:1.0;"/><line style="stroke:#181818;stroke-width:1.0;" x1="194.5" x2="622.5" y1="1460.4375" y2="1460.4375"/><text fill="#000000" font-family="sans-serif" font-size="13" lengthAdjust="spacing" textLength="101" x="206.5" y="1455.3716">challenge result</text><polygon fill="#181818" points="200.5,1485.5703,190.5,1489.5703,200.5,1493.5703,196.5,1489.5703" style="stroke:#181818;stroke-width:1.0;"/><line style="stroke:#181818;stroke-width:1.0;" x1="194.5" x2="729.5" y1="1489.5703" y2="1489.5703"/><text fill="#000000" font-family="sans-serif" font-size="13" lengthAdjust="spacing" textLength="101" x="206.5" y="1484.5044">challenge result</text><polygon fill="#181818" points="200.5,1514.7031,190.5,1518.7031,200.5,1522.7031,196.5,1518.7031" style="stroke:#181818;stroke-width:1.0;"/><line style="stroke:#181818;stroke-width:1.0;" x1="194.5" x2="836.5" y1="1518.7031" y2="1518.7031"/><text fill="#000000" font-family="sans-serif" font-size="13" lengthAdjust="spacing" textLength="101" x="206.5" y="1513.6372">challenge result</text><rect fill="#EEEEEE" height="3" style="stroke:#EEEEEE;stroke-width:1.0;" width="1130" x="0" y="1575.2695"/><line style="stroke:#000000;stroke-width:1.0;" x1="0" x2="1130" y1="1575.2695" y2="1575.2695"/><line style="stroke:#000000;stroke-width:1.0;" x1="0" x2="1130" y1="1578.2695" y2="1578.2695"/><rect fill="#EEEEEE" height="23.1328" style="stroke:#000000;stroke-width:2.0;" width="83" x="523.5" y="1564.7031"/><text fill="#000000" font-family="sans-serif" font-size="13" font-weight="bold" lengthAdjust="spacing" textLength="64" x="529.5" y="1580.77">Rewards</text><polygon fill="#181818" points="634.5,1614.9688,624.5,1618.9688,634.5,1622.9688,630.5,1618.9688" style="stroke:#181818;stroke-width:1.0;"/><line style="stroke:#181818;stroke-width:1.0;" x1="628.5" x2="1025.5" y1="1618.9688" y2="1618.9688"/><text fill="#000000" font-family="sans-serif" font-size="13" lengthAdjust="spacing" textLength="165" x="640.5" y="1613.9028">rewards in walletPublicKey</text><polygon fill="#181818" points="741.5,1644.1016,731.5,1648.1016,741.5,1652.1016,737.5,1648.1016" style="stroke:#181818;stroke-width:1.0;"/><line style="stroke:#181818;stroke-width:1.0;" x1="735.5" x2="1025.5" y1="1648.1016" y2="1648.1016"/><text fill="#000000" font-family="sans-serif" font-size="13" lengthAdjust="spacing" textLength="165" x="747.5" y="1643.0356">rewards in walletPublicKey</text><polygon fill="#181818" points="848.5,1673.2344,838.5,1677.2344,848.5,1681.2344,844.5,1677.2344" style="stroke:#181818;stroke-width:1.0;"/><line style="stroke:#181818;stroke-width:1.0;" x1="842.5" x2="1025.5" y1="1677.2344" y2="1677.2344"/><text fill="#000000" font-family="sans-serif" font-size="13" lengthAdjust="spacing" textLength="165" x="854.5" y="1672.1685">rewards in walletPublicKey</text><!--SRC=[hLJBZjem5DtxAwvOT4KjnuPv8AMRTDTPeDdCebGZ9p746cgdjYc3gldtsi2GP8WPfcM18gxFFUVOzr79Ki1SQvVhPuHuuRI1ATy80zp28AluSYdKGioKLD99xey7gER6oKBMN3d8j3QbLE408QMT0FtR9q_DzZE1OidbJmif_1daN9LhMRfgC1cJbw6dh7qymHGpFF9_wrN-93O-H9uJoZ36RSA34vD4MMcBbM1AC2DuH7RCIrbysvEFnbUUt8VNWT9DEuVNDxUzgZIgcemFgcE2hmY-9lZcM9NdHLor5FDmtpvX5XTkhdjBS4BypryxeJtQd4U4yppVFdIQmfrUI0LfYj2-U9-_jAlhRUmGQ-agQFW_GMO4zxuVH6vryIHSD7ygrGA4Fze08s15eLLfGQjMAjgwQHVxdrsS93d3Id3Ihly5ZD0B666NCCB-epYXLVXA5HNmfar3t-pMHhyx99IJRWCFqYbXRL5ngHw_PdUFNiOPltPGanx5UB9xyMibhFFInQjqLFVLP8D4RSHHGbPfRKK3DnQI8HsoNG6wcSr-Exo0L7CTHdIcPgxDCO7l8VJ3J-3BaO7kLkjmnR7q0rXsZ0qLx1JkpQJqtAtceG7isrO-2ydUGORNRMsCbfSEt0XRQsL5BvP-0CiYsEwOzUoCJivg-SvWdq2pCz27MRiNQsxy9FewnGVZg9NCFYliXUxQFvU5NeI5dMJv2m00]--></g></svg>